<?xml version="1.0" encoding="utf-8"?>
<!-- Generator: Adobe Illustrator 28.0.0, SVG Export Plug-In . SVG Version: 6.00 Build 0)  -->
<svg version="1.1" id="Calque_1" xmlns="http://www.w3.org/2000/svg" xmlns:xlink="http://www.w3.org/1999/xlink" x="0px" y="0px"
	 viewBox="0 0 500 500" style="enable-background:new 0 0 500 500;" xml:space="preserve">
<style type="text/css">
	.st0{fill:#FDD07A;}
	.st1{fill:#EE7E65;}
</style>
<g>
	<path class="st0" d="M190.41,331.9c14.85,10.35,114.15,24.14,147.56-16.38c66.59-80.76,36.19-140.53,28.77-152.6
		c-7.42-12.07-30.17-31.84-57.54,1.72c-23.2,28.45,0.93,50.87,0.93,50.87s-36.42,1.29-22.27-52.59
		c9.28-35.35,49.19-39.66,57.54-39.66s14.85-3.45,12.99-12.93c-1.86-9.48-10.21-62.94-108.58-69.84
		c-108.08-7.58-122.5,64.66-126.21,74.15c-4.85,12.39-7.42,37.07-5.57,59.49c2.44,29.43,9.49,53.05,18.06,76.6
		c5.72,15.73,7.52,15.89,20.02,61.49c10.61,38.71,7.53,51.54,18.59,67.21c17.16,24.31,31.55,30.46,37.85,33.61
		c11.44,5.72-52.15-12.16-56.44-37.9c-5.15-30.93-12.87-48.62-28.6-94.38c-8.12-23.62-17.45-45.42-21.45-68.64
		c-7.15-41.47-8.65-48.76-4.73-83.68c4.73-42.16,16.77-113.44,148.49-110.36c129.39,3.03,130.04,94.65,129,95.7
		c0,0-1.86,16.38,2.78,21.55c4.64,5.17,18.56,20.65,18.56,60.35c0,26.73,6.5,39.66-21.35,98.29c-22.97,48.38-51.04,58.63-83.52,63.8
		C220.09,369.74,187.62,330.18,190.41,331.9z"/>
	<path class="st0" d="M215.46,54.56c0,0-76.33,1.62-84.44,86.77c-2.86,30.03-1.43,44.33,5.72,65.78
		c8.83,26.48,14.3,25.74,14.3,25.74s-7.15-24.35-5.72-51.48c1.43-27.17,2.86-54.34,20.95-81.12
		C188.91,66.76,215.46,54.56,215.46,54.56z"/>
	<path class="st1" d="M202.52,105.58c0,0,9.23,30.61,4.59,58.2s-13.92,47.42-14.85,70.7s2.78,68.11,53.83,74.15
		c50.77,6,67.75-44.83,67.75-44.83s-13.15,15.55-36.19,19.83c-4.64,0.86,38.05-17.24,59.4-93.98c4.64-31.9,8.35,39.66,2.78,62.94
		c-4.54,18.99-15.78,77.6-87.9,74.15c-66.1-3.16-80.08-41.38-80.08-87.08s19.49-52.59,27.84-99.32
		C204.33,106.88,202.52,105.58,202.52,105.58z"/>
	<path class="st1" d="M208.97,206.03c4.64,18.97,20.36,37.58,30.16,38.38c5.1,0.42-21.81,13.35-11.6,46.97
		C209.89,281.9,195.97,245.69,208.97,206.03z"/>
	<path class="st1" d="M238.33,291.85c-7.09-8.23-9.87-27.2,5.69-43.15c3.92-3.02,10.06-3.87,12.84,1.31c1.71,3.18,7.15,1.43,8.58,0
		c1.43-1.43,5.72-8.58,12.87-10.01c10.68-2.14,17.16,10.01,0,22.88c-9.96,7.47-12.87,11.44-14.3,22.88
		C262.07,301.34,245.42,300.09,238.33,291.85z"/>
	<path class="st1" d="M216.82,164.21c0-8.51,8.22,3.13,15.34,17.68c3.25,6.63,9.45-1,13.26-4.81c4.29-4.29,8.67-3.11,12.87-1.43
		c7.15,2.86,14.3,15.73,7.15,25.74c-5.51,7.71-7.75,5.34-11.44,5.72c-8.35,0.86-9.77,5.82-11.63,19.61
		c-2.48,18.47-31.96-14.24-26.91-35.35C221.03,168.09,216.82,172.72,216.82,164.21z"/>
	<path class="st1" d="M221.03,115.5c0,0-9.77,19.51,0.93,32.76c11.14,13.79,12.99,25.87,12.99,25.87s3.66-23.05-3.71-31.04
		C220.1,131.02,221.03,115.5,221.03,115.5z"/>
	<path class="st1" d="M211.6,111.48c0.93-9.48,10.21-21.55,23.2-21.55s13.92-0.86,21.35-5.17c7.42-4.31,3.71-4.31,10.21-7.76
		c6.5-3.45,20.42,7.76,8.35,25s-35.27,12.93-36.19,12.93c-0.93,0-7.42,0-7.42-12.07c0,0-9.61,13.86,2.78,21.55
		c8.69,5.4,38.05-1.72,46.4-10.35c9.82-10.13,12.47-20.77,9.28-33.62c-2.78-11.21-21.35-13.79-25.99-10.35
		c-4.64,3.45-10.21,9.48-14.85,9.48c-4.64,0-19.49,0-26.91,6.9S206.96,99.41,211.6,111.48z"/>
	<path class="st1" d="M246.86,93.38c12.99,0,17.63-8.62,19.49-12.07c0,0,6.5,10.35-3.71,14.66
		C250.87,100.93,246.86,93.38,246.86,93.38z"/>
	<path class="st0" d="M142.15,376.74c0,0,11.05,9.26,13.92,23.28c2.87,14.02,2.39,13.27,3.05,20s2.39,14.68,10.06,22.47
		c7.66,7.79,35.45,25.14,77.36,25.14s72.06-12.77,76.64-16.91c4.58-4.14,9.22-12.77,6.44-14.49c-1.86-0.86-0.93-0.86-11.14,0
		c-12.16,1.03-42.69,6.04-62.18,4.31c-19.49-1.72-20.42-6.04-20.42-6.04c7.42,1.72,38.05-0.86,52.9-2.59s14.85-2.59,22.27-4.31
		c7.42-1.72,22.31-8.16,26.91-22.42c5.57-17.24,0.93-19.83,3.71-33.62c4.3-21.28,35.27-44.83,35.27-44.83
		c-8.76,14.33-20.95,27.16-22.27,40.52c-1.55,15.67-2.78,19.83,0.93,43.11c3.71,23.28-3.71,31.9-10.21,42.25
		c-6.5,10.35-33.41,31.04-91.88,29.31s-88.62-17.59-94.66-24.14c-5.57-6.04-7.3-8.88-9.28-13.79c-2.78-6.9,0.72-18.12,0-36.21
		C148.64,384.5,142.15,376.74,142.15,376.74z"/>
	<path class="st1" d="M203.71,361.56c0,0,65.41,25.9,121.07,2.23c4.05-3.04-8.58,28.58-54.82,24.62S203.71,361.56,203.71,361.56z"/>
</g>
</svg>
