<?xml version="1.0" encoding="utf-8"?>
<!-- Generator: Adobe Illustrator 28.0.0, SVG Export Plug-In . SVG Version: 6.00 Build 0)  -->
<svg version="1.1" id="Calque_1" xmlns="http://www.w3.org/2000/svg" xmlns:xlink="http://www.w3.org/1999/xlink" x="0px" y="0px"
	 viewBox="0 0 1000 500" style="enable-background:new 0 0 1000 500;" xml:space="preserve">
<style type="text/css">
	.st0{fill:#EE7E65;}
	.st1{fill:#FDD07A;}
</style>
<path class="st0" d="M351.18,184.92c0,0-27.18,2.9-34.2,27.44c-2.14,7.47-2.99,14.1-2.9,18.18c0.13,5.51,2.97,10.34,2.48,9.34
	c-0.34-0.7,1.37-10.88,2.74-16.52c1.94-7.97,5.61-16.49,14.44-25.03C343.26,189.11,351.18,184.92,351.18,184.92z"/>
<path class="st1" d="M295.88,217.6c0,0-28.53,1.91-37.69,40.2c-5.13,21.43-21.88,34.1-21.88,34.1s24.56-4.83,32.99-33.26
	C277.51,230.93,279.89,230.29,295.88,217.6z"/>
<path class="st0" d="M187.47,326.57c0,0,20.15-2.9,29.55-20.6c7.49-14.1,8.43-13.71,18.23-21.24c13.02-10,16.8-23.07,17-32.62
	c0,0-7.79,18.21-21.57,24.09c-15.32,6.53-20.27,18.05-23.6,26.28C203.81,310.52,199.11,319.42,187.47,326.57z"/>
<path class="st1" d="M275.78,200.73c0,0-28.53,1.91-37.69,40.2c-5.13,21.43-21.88,34.1-21.88,34.1s24.56-4.83,32.99-33.26
	C257.42,214.06,259.79,213.43,275.78,200.73z"/>
<path class="st1" d="M321.15,169.06c0,0-20.15,2.9-29.55,20.6c-7.49,14.1-8.43,13.71-18.23,21.24c-13.02,10-16.8,23.07-17,32.62
	c0,0,7.79-18.21,21.57-24.09c15.32-6.53,20.27-18.05,23.6-26.28C304.8,185.11,309.51,176.21,321.15,169.06z"/>
<path class="st1" d="M253.73,201.24c0,0,27.31,1.3,38-21.87c3.25-7.05,5.12-13.47,5.65-17.52c0.71-5.46-1.35-10.68-1.02-9.61
	c0.23,0.74-3.02,10.54-5.24,15.9c-3.14,7.57-8.07,15.43-18.1,22.52C262.2,198.31,253.73,201.24,253.73,201.24z"/>
<path class="st1" d="M305.81,216.6c0,0-7.44-27.61,25.81-48.69c18.61-11.8,25.16-31.75,25.16-31.75s3.4,24.8-20.77,41.99
	C312.47,194.9,312.64,197.35,305.81,216.6z"/>
<path class="st1" d="M309.21,227.61c0,0-19.42,6.11-25.84,25.09c-5.12,15.13-6.11,14.88-14.57,23.9
	c-11.23,11.97-12.86,25.48-11.51,34.93c0,0,4.75-19.23,17.41-27.25c14.07-8.92,17.09-21.08,19.06-29.74
	C295.67,246.09,298.87,236.54,309.21,227.61z"/>
<path class="st1" d="M290.65,140.46c0,0,27.18-2.9,34.2-27.44c2.14-7.47,2.99-14.1,2.9-18.18c-0.13-5.51-2.97-10.34-2.48-9.34
	c0.34,0.7-1.37,10.88-2.74,16.52c-1.94,7.97-5.61,16.49-14.44,25.03C298.57,136.26,290.65,140.46,290.65,140.46z"/>
<path class="st1" d="M341.89,181.25c0,0,20.15-2.9,29.55-20.6c7.49-14.1,8.43-13.71,18.23-21.24c13.02-10,16.8-23.07,17-32.62
	c0,0-7.79,18.21-21.57,24.09c-15.32,6.53-20.27,18.05-23.6,26.28C358.24,165.2,353.53,174.1,341.89,181.25z"/>
<path class="st0" d="M267.98,342.25c0,0-12.5-25.72,16.2-52.67c16.06-15.08,18.74-35.92,18.74-35.92s8,23.72-12.51,45.15
	C270.44,319.69,271.06,322.06,267.98,342.25z"/>
<path class="st1" d="M356.03,131.4c0,0,27.01,4.22,40.13-17.67c3.99-6.66,6.54-12.84,7.5-16.81c1.3-5.35-0.2-10.76,0.02-9.66
	c0.15,0.76-4.13,10.15-6.92,15.25c-3.93,7.19-9.68,14.48-20.41,20.45C364.77,129.39,356.03,131.4,356.03,131.4z"/>
<path class="st0" d="M228.37,221.51c0,0-5.27-28.1,29.51-46.53c19.47-10.31,27.55-29.7,27.55-29.7s1.46,24.99-23.97,40.25
	C236.69,200.39,236.67,202.85,228.37,221.51z"/>
<path class="st1" d="M187.17,314.78c0,0-12.5-25.72,16.2-52.67c16.06-15.08,18.74-35.92,18.74-35.92s8,23.72-12.51,45.15
	C189.63,292.22,190.26,294.59,187.17,314.78z"/>
<path class="st0" d="M367.65,95.65c0,0-20.15,2.9-29.55,20.6c-7.49,14.1-8.43,13.71-18.23,21.24c-13.02,10-16.8,23.07-17,32.62
	c0,0,7.79-18.21,21.57-24.09c15.32-6.53,20.27-18.05,23.6-26.28C351.3,111.7,356,102.8,367.65,95.65z"/>
<path class="st1" d="M353.28,121.67c0,0,20.15-2.9,29.55-20.6c7.49-14.1,8.43-13.71,18.23-21.24c13.02-10,16.8-23.07,17-32.62
	c0,0-7.79,18.21-21.57,24.09c-15.32,6.53-20.27,18.05-23.6,26.28C369.63,105.62,364.92,114.52,353.28,121.67z"/>
<path class="st1" d="M335.84,107.43c0,0-3.53-28.37,32.32-44.63c20.07-9.1,29.33-27.95,29.33-27.95s-0.08,25.03-26.4,38.7
	C345.44,86.87,345.27,89.32,335.84,107.43z"/>
<path class="st1" d="M399.07,157.35c0,0-20.06,3.46-28.97,21.41c-7.1,14.31-8.05,13.93-17.64,21.74
	c-12.73,10.36-16.16,23.53-16.08,33.08c0,0,7.28-18.42,20.9-24.68c15.13-6.95,19.76-18.61,22.86-26.93
	C383.17,173.86,387.63,164.83,399.07,157.35z"/>
<path class="st1" d="M316.85,293.23c0,0-27.18,2.9-34.2,27.44c-2.14,7.47-2.99,14.1-2.9,18.18c0.13,5.51,2.97,10.34,2.48,9.34
	c-0.34-0.7,1.37-10.88,2.74-16.52c1.94-7.97,5.61-16.49,14.44-25.03C308.93,297.42,316.85,293.23,316.85,293.23z"/>
<path class="st0" d="M390.4,152.67c0,0,20.15-2.9,29.55-20.6c7.49-14.1,8.43-13.71,18.23-21.24c13.02-10,16.8-23.07,17-32.62
	c0,0-7.79,18.21-21.57,24.09c-15.32,6.53-20.27,18.05-23.6,26.28C406.75,136.61,402.04,145.51,390.4,152.67z"/>
<path class="st1" d="M256.42,169.18c0,0-7.44-27.61,25.81-48.69c18.61-11.8,25.16-31.75,25.16-31.75s3.4,24.8-20.77,41.99
	C263.08,147.48,263.25,149.93,256.42,169.18z"/>
<path class="st1" d="M245.2,168.7c0,0-20.15,2.9-29.55,20.6c-7.49,14.1-8.43,13.71-18.23,21.24c-13.02,10-16.8,23.07-17,32.62
	c0,0,7.79-18.21,21.57-24.09c15.32-6.53,20.27-18.05,23.6-26.28C228.85,184.75,233.56,175.85,245.2,168.7z"/>
<path class="st1" d="M159.01,301.48c0,0-7.44-27.61,25.81-48.69c18.61-11.8,25.16-31.75,25.16-31.75s3.4,24.8-20.77,41.99
	C165.66,279.78,165.83,282.23,159.01,301.48z"/>
<path class="st1" d="M374.1,214.33c0,0,19.42-6.11,25.84-25.09c5.12-15.13,6.11-14.89,14.57-23.9
	c11.23-11.97,12.86-25.48,11.51-34.93c0,0-4.75,19.23-17.41,27.25c-14.07,8.92-17.09,21.08-19.06,29.74
	C387.65,195.85,384.44,205.4,374.1,214.33z"/>
<path class="st1" d="M311.89,288.24c0,0-5.64-28.03,28.9-46.92c19.33-10.57,27.16-30.06,27.16-30.06s1.79,24.96-23.44,40.56
	C319.93,267.01,319.95,269.47,311.89,288.24z"/>
<path class="st1" d="M480.25,111.48c0,0-27.01-4.22-40.13,17.67c-3.99,6.66-6.54,12.84-7.5,16.81c-1.3,5.35,0.2,10.76-0.02,9.66
	c-0.15-0.76,4.13-10.15,6.92-15.25c3.93-7.19,9.68-14.48,20.41-20.45C471.51,113.48,480.25,111.48,480.25,111.48z"/>
<path class="st1" d="M461.39,165.9c0,0-24.92-11.25-43.38,6.37c-5.62,5.36-9.71,10.65-11.7,14.22c-2.67,4.82-2.67,10.42-2.58,9.31
	c0.06-0.77,6.68-8.69,10.72-12.86c5.71-5.89,13.18-11.38,25.11-14.29C452.44,165.51,461.39,165.9,461.39,165.9z"/>
<path class="st1" d="M357.23,255c0,0-28.4,3.37-35.59,42.07c-4.02,21.66-20.11,35.17-20.11,35.17s24.28-6.08,31.25-34.91
	C339.57,269.25,341.91,268.5,357.23,255z"/>
<path class="st1" d="M441.43,154.87c0,0,8.38-27.34,47.75-27.5c22.03-0.09,38.2-13.51,38.2-13.51s-10.31,22.8-39.92,24.51
	C458.61,140.03,457.45,142.2,441.43,154.87z"/>
<path class="st1" d="M257.96,373.69c0,0,27.33-0.5,36.48-24.33c2.78-7.25,4.22-13.78,4.48-17.86c0.35-5.5-2.05-10.56-1.65-9.52
	c0.28,0.72-2.32,10.72-4.18,16.21c-2.63,7.76-7.04,15.93-16.58,23.67C266.22,370.21,257.96,373.69,257.96,373.69z"/>
<path class="st0" d="M550.85,155.81c0,0-15.76-12.88-35.16-7.83c-15.46,4.02-15.8,3.06-27.97,0.94
	c-16.17-2.82-28.36,3.23-35.52,9.55c0,0,18.68-6.58,32.33-0.4c15.17,6.87,27.01,2.72,35.32-0.39
	C527.96,154.63,537.7,152.07,550.85,155.81z"/>
<path class="st1" d="M416.45,199.31c0,0,11.38-26.23,50.52-22.01c21.9,2.36,39.46-9.17,39.46-9.17s-12.79,21.51-42.41,19.91
	C435.17,186.48,433.78,188.5,416.45,199.31z"/>
<path class="st0" d="M411.72,209.5c0,0-27.19-2.83-39.17,19.71c-3.64,6.86-5.87,13.16-6.62,17.18c-1.02,5.41,0.75,10.73,0.48,9.65
	c-0.19-0.75,3.6-10.35,6.12-15.58c3.56-7.39,8.93-14.96,19.33-21.47C403.1,211.95,411.72,209.5,411.72,209.5z"/>
<path class="st1" d="M292.2,393.54c0,0,18.76-7.9,23.38-27.4c3.68-15.54,4.69-15.39,12.27-25.16c10.06-12.97,10.42-26.57,8.19-35.86
	c0,0-2.93,19.59-14.78,28.76c-13.17,10.19-15.04,22.59-16.19,31.4C303.95,373.88,301.65,383.68,292.2,393.54z"/>
<path class="st0" d="M170.74,251.17c0,0-26.14,8-28.39,33.42c-0.68,7.74-0.27,14.41,0.6,18.4c1.17,5.38,4.88,9.59,4.21,8.7
	c-0.47-0.62-0.72-10.94-0.44-16.74c0.4-8.19,2.39-17.25,9.43-27.31C163.75,256.78,170.74,251.17,170.74,251.17z"/>
<path class="st0" d="M252.44,432.88c0,0-8.26-27.38,24.35-49.43c18.25-12.34,24.21-32.49,24.21-32.49s4.13,24.68-19.52,42.59
	C258.45,410.99,258.7,413.44,252.44,432.88z"/>
<path class="st1" d="M287.96,396.77c0,0-24.73,11.64-23.33,37.12c0.43,7.76,1.79,14.3,3.22,18.13c1.93,5.16,6.19,8.8,5.4,8.01
	c-0.55-0.55-2.27-10.72-2.82-16.5c-0.77-8.16-0.1-17.42,5.44-28.38C281.85,403.33,287.96,396.77,287.96,396.77z"/>
<path class="st1" d="M261.97,382.45c0,0-19.13,6.96-24.71,26.21c-4.45,15.34-5.45,15.14-13.5,24.52
	c-10.7,12.46-11.73,26.02-9.96,35.41c0,0,3.9-19.42,16.19-27.99c13.66-9.53,16.15-21.82,17.73-30.55
	C249.25,401.51,252.03,391.83,261.97,382.45z"/>
<path class="st1" d="M554.1,98.84c0,0-16.34-12.13-35.49-6.19c-15.25,4.73-15.64,3.79-27.9,2.23c-16.29-2.07-28.18,4.54-35.04,11.18
	c0,0,18.36-7.44,32.28-1.9c15.48,6.16,27.1,1.46,35.27-2.03C531.19,98.72,540.8,95.72,554.1,98.84z"/>
<path class="st1" d="M249.76,298.84c0,0-28.53,1.91-37.69,40.2c-5.13,21.43-21.88,34.1-21.88,34.1s24.56-4.83,32.99-33.26
	C231.4,312.17,233.77,311.54,249.76,298.84z"/>
<path class="st1" d="M231.39,389.39c0,0,25.95-8.59,27.62-34.05c0.51-7.75-0.06-14.41-1.02-18.38c-1.29-5.35-5.09-9.48-4.4-8.6
	c0.48,0.61,0.97,10.92,0.82,16.72c-0.21,8.2-2,17.3-8.81,27.52C238.25,383.62,231.39,389.39,231.39,389.39z"/>
<path class="st1" d="M252.79,314.07c0,0-18.03,9.45-20.98,29.28c-2.36,15.8-3.38,15.73-10.1,26.1c-8.93,13.77-8.14,27.36-5.14,36.42
	c0,0,1.27-19.77,12.3-29.9c12.26-11.27,13.08-23.78,13.48-32.65C242.73,334.66,244.19,324.7,252.79,314.07z"/>
<path class="st1" d="M488.92,43.53c0,0-27.52-7.77-48.99,25.22c-12.02,18.47-32.05,24.78-32.05,24.78s24.75,3.69,42.24-20.27
	C467.14,49.92,469.59,50.12,488.92,43.53z"/>
<path class="st1" d="M460.95,85.83c0,0,3.65-28.36,42.43-35.16c21.7-3.81,35.37-19.76,35.37-19.76s-6.32,24.22-35.22,30.89
	C475.38,68.31,474.6,70.65,460.95,85.83z"/>
<path class="st0" d="M580.96,64.88c0,0-18.01-9.48-36.02-0.66c-14.34,7.02-14.87,6.15-27.23,6.5c-16.41,0.46-27.15,8.82-32.91,16.44
	c0,0,16.99-10.18,31.6-6.84c16.24,3.7,27-2.72,34.53-7.43C558.3,68.28,567.34,63.83,580.96,64.88z"/>
<path class="st0" d="M529.9,110.43c0,0,21.27,17.17,43.58,4.79c6.79-3.77,12.09-7.85,14.9-10.81c3.8-3.99,5.21-9.41,4.85-8.36
	c-0.25,0.73-8.66,6.72-13.62,9.74c-7.01,4.26-15.63,7.69-27.91,7.49C538.46,113.06,529.9,110.43,529.9,110.43z"/>
<path class="st1" d="M169.06,425.41c0,0-17.92-22.28,4.04-54.96c12.29-18.29,10.26-39.19,10.26-39.19s13.09,21.33-2.12,46.8
	C166.42,402.87,167.56,405.04,169.06,425.41z"/>
<path class="st1" d="M228.1,412.16c0,0-26.14,8-28.39,33.42c-0.68,7.74-0.27,14.41,0.6,18.4c1.17,5.38,4.88,9.59,4.21,8.7
	c-0.47-0.62-0.72-10.94-0.44-16.74c0.4-8.19,2.39-17.25,9.43-27.31C221.12,417.77,228.1,412.16,228.1,412.16z"/>
<path class="st0" d="M208.4,375.24c0,0-27.03,9.34-25.81,48.68c0.68,22.02-12.16,38.65-12.16,38.65s22.43-11.11,23.1-40.76
	C194.17,392.93,196.3,391.7,208.4,375.24z"/>
<path class="st1" d="M150.49,384.6c0,0,16.49-11.94,16.58-31.98c0.07-15.97,1.09-16.05,6.26-27.28c6.87-14.91,4.15-28.24-0.12-36.78
	c0,0,1.57,19.74-7.9,31.36c-10.53,12.91-9.55,25.41-8.67,34.24C157.5,362.79,157.47,372.85,150.49,384.6z"/>
<path class="st1" d="M536.15,58.51c0,0,11.38-26.23,50.52-22.01c21.9,2.36,39.46-9.17,39.46-9.17s-12.79,21.51-42.41,19.91
	C554.87,45.68,553.48,47.7,536.15,58.51z"/>
<path class="st1" d="M624.57,126.75c0,0-21.11-19.29-55.1,0.57c-19.02,11.11-39.76,7.77-39.76,7.77s20.47,14.4,46.84,0.83
	C602.24,122.7,604.34,123.97,624.57,126.75z"/>
<path class="st1" d="M639.91,144.72c0,0-19.87-18.78-43.08-8.17c-7.06,3.23-12.66,6.88-15.7,9.61c-4.1,3.68-5.93,8.98-5.48,7.95
	c0.31-0.71,9.16-6.03,14.34-8.65c7.32-3.7,16.18-6.45,28.41-5.29C631.58,141.42,639.91,144.72,639.91,144.72z"/>
<path class="st1" d="M694.36,105.25c0,0-16.34-12.13-35.49-6.19c-15.25,4.73-15.64,3.79-27.9,2.23
	c-16.29-2.07-28.18,4.54-35.04,11.18c0,0,18.36-7.44,32.28-1.9c15.48,6.16,27.1,1.46,35.27-2.03
	C671.44,105.13,681.05,102.12,694.36,105.25z"/>
<path class="st1" d="M639.29,63.24c0,0-23.93-15.66-54.3,9.39c-17,14.02-38,14.04-38,14.04s22.51,10.94,46.37-6.69
	C616.6,62.82,618.87,63.75,639.29,63.24z"/>
<path class="st0" d="M633.39,124.2c0,0,16.87,11.39,35.73,4.59c15.02-5.42,15.45-4.49,27.77-3.49c16.36,1.33,27.95-5.81,34.5-12.75
	c0,0-18,8.26-32.16,3.36c-15.74-5.45-27.14-0.24-35.14,3.62C656.28,123.29,646.82,126.72,633.39,124.2z"/>
<path class="st1" d="M704.88,132.83c0,0,24.98,11.11,43.34-6.6c5.59-5.39,9.66-10.7,11.62-14.28c2.65-4.83,2.61-10.44,2.53-9.32
	c-0.06,0.77-6.63,8.73-10.65,12.92c-5.67,5.92-13.12,11.45-25.04,14.42C713.84,133.17,704.88,132.83,704.88,132.83z"/>
<path class="st1" d="M791.73,95.44c0,0-19.98-20.45-55.05-2.55c-19.62,10.02-40.14,5.51-40.14,5.51s19.62,15.54,46.72,3.48
	C769.67,90.13,771.69,91.52,791.73,95.44z"/>
<path class="st1" d="M602.25,87.09c0,0,17.28,10.75,35.87,3.26c14.81-5.97,15.27-5.06,27.62-4.51c16.4,0.73,27.71-6.84,34.01-14.02
	c0,0-17.69,8.92-32.01,4.54c-15.93-4.87-27.13,0.76-34.98,4.92C625.09,85.33,615.76,89.11,602.25,87.09z"/>
<path class="st1" d="M768.55,124.8c0,0,10.61-26.55,49.86-23.46c21.96,1.73,39.18-10.31,39.18-10.31s-12.16,21.87-41.81,21.13
	C786.89,111.44,785.56,113.5,768.55,124.8z"/>
<path class="st0" d="M793.34,81.35c0,0,21.57,16.8,43.66,4.03c6.72-3.89,11.95-8.06,14.72-11.06c3.73-4.05,5.05-9.5,4.7-8.44
	c-0.24,0.74-8.54,6.87-13.45,9.97c-6.93,4.38-15.49,7.96-27.77,7.97C801.95,83.84,793.34,81.35,793.34,81.35z"/>
<path class="st1" d="M638.06,60.57c0,0,16.65,11.71,35.63,5.28c15.13-5.13,15.54-4.19,27.83-2.95c16.33,1.65,28.05-5.27,34.74-12.08
	c0,0-18.16,7.91-32.22,2.73c-15.63-5.76-27.13-0.76-35.2,2.94C660.97,60.1,651.44,63.35,638.06,60.57z"/>
<path class="st1" d="M757.15,79.51c0,0,11.38-26.23,50.52-22.01c21.9,2.36,39.46-9.17,39.46-9.17s-12.79,21.51-42.41,19.91
	C775.87,66.68,774.48,68.7,757.15,79.51z"/>
<path class="st0" d="M782.95,47.43c0,0-26.61-10.47-51.26,20.22c-13.8,17.18-34.36,21.47-34.36,21.47s24.26,6.14,44.04-15.96
	C760.65,51.63,763.06,52.07,782.95,47.43z"/>
</svg>
